<svg id="visual" viewBox="0 0 2560 1080" width="2560" height="1080" xmlns="http://www.w3.org/2000/svg" xmlns:xlink="http://www.w3.org/1999/xlink" version="1.1"><g stroke-width="1" stroke-linejoin="bevel"><path d="M1374.2 494L1443.2 294L1191.8 477Z" fill="#0b2a6a" stroke="#0b2a6a"></path><path d="M1443.2 294L1145.8 278L1191.8 477Z" fill="#3242a6" stroke="#3242a6"></path><path d="M1443.2 294L1365.2 0L1145.8 278Z" fill="#143079" stroke="#143079"></path><path d="M1365.2 0L1173.8 0L1145.8 278Z" fill="#715df2" stroke="#715df2"></path><path d="M1678.7 477L1644.7 217L1443.2 294Z" fill="#04245c" stroke="#04245c"></path><path d="M1443.2 294L1644.7 217L1365.2 0Z" fill="#0b2a6a" stroke="#0b2a6a"></path><path d="M1173.8 0L915.3 247L1145.8 278Z" fill="#1d3688" stroke="#1d3688"></path><path d="M1145.8 278L902.3 521L1191.8 477Z" fill="#273c97" stroke="#273c97"></path><path d="M1374.2 494L1678.7 477L1443.2 294Z" fill="#494dc4" stroke="#494dc4"></path><path d="M915.3 247L902.3 521L1145.8 278Z" fill="#494dc4" stroke="#494dc4"></path><path d="M1191.8 477L1361.2 860L1374.2 494Z" fill="#6358e3" stroke="#6358e3"></path><path d="M1374.2 494L1760.7 773L1678.7 477Z" fill="#0b2a6a" stroke="#0b2a6a"></path><path d="M1082.8 848L1361.2 860L1191.8 477Z" fill="#6358e3" stroke="#6358e3"></path><path d="M902.3 521L1082.8 848L1191.8 477Z" fill="#1d3688" stroke="#1d3688"></path><path d="M1173.8 0L852.3 0L915.3 247Z" fill="#6358e3" stroke="#6358e3"></path><path d="M915.3 247L578.9 532L902.3 521Z" fill="#143079" stroke="#143079"></path><path d="M1943.1 241L1751.7 0L1644.7 217Z" fill="#3d48b5" stroke="#3d48b5"></path><path d="M1644.7 217L1751.7 0L1365.2 0Z" fill="#273c97" stroke="#273c97"></path><path d="M902.3 521L900.3 807L1082.8 848Z" fill="#5653d4" stroke="#5653d4"></path><path d="M614.9 817L900.3 807L902.3 521Z" fill="#5653d4" stroke="#5653d4"></path><path d="M1361.2 860L1760.7 773L1374.2 494Z" fill="#273c97" stroke="#273c97"></path><path d="M1678.7 477L1943.1 241L1644.7 217Z" fill="#04245c" stroke="#04245c"></path><path d="M1960.1 499L1943.1 241L1678.7 477Z" fill="#0b2a6a" stroke="#0b2a6a"></path><path d="M1760.7 773L1960.1 499L1678.7 477Z" fill="#04245c" stroke="#04245c"></path><path d="M1133.8 1080L1378.2 1080L1361.2 860Z" fill="#715df2" stroke="#715df2"></path><path d="M1361.2 860L1681.7 1080L1760.7 773Z" fill="#1d3688" stroke="#1d3688"></path><path d="M1133.8 1080L1361.2 860L1082.8 848Z" fill="#5653d4" stroke="#5653d4"></path><path d="M2254.6 289L1935.1 0L1943.1 241Z" fill="#3d48b5" stroke="#3d48b5"></path><path d="M1943.1 241L1935.1 0L1751.7 0Z" fill="#04245c" stroke="#04245c"></path><path d="M527.9 293L578.9 532L915.3 247Z" fill="#5653d4" stroke="#5653d4"></path><path d="M829.3 1080L1082.8 848L900.3 807Z" fill="#143079" stroke="#143079"></path><path d="M829.3 1080L1133.8 1080L1082.8 848Z" fill="#143079" stroke="#143079"></path><path d="M611.9 0L527.9 293L915.3 247Z" fill="#6358e3" stroke="#6358e3"></path><path d="M852.3 0L611.9 0L915.3 247Z" fill="#04245c" stroke="#04245c"></path><path d="M1378.2 1080L1681.7 1080L1361.2 860Z" fill="#273c97" stroke="#273c97"></path><path d="M1760.7 773L2047.1 819L1960.1 499Z" fill="#273c97" stroke="#273c97"></path><path d="M612.9 1080L614.9 817L339.4 1080Z" fill="#3242a6" stroke="#3242a6"></path><path d="M578.9 532L614.9 817L902.3 521Z" fill="#1d3688" stroke="#1d3688"></path><path d="M614.9 817L829.3 1080L900.3 807Z" fill="#0b2a6a" stroke="#0b2a6a"></path><path d="M2048.1 1080L2047.1 819L1760.7 773Z" fill="#5653d4" stroke="#5653d4"></path><path d="M1960.1 499L2254.6 289L1943.1 241Z" fill="#715df2" stroke="#715df2"></path><path d="M2270.6 502L2254.6 289L1960.1 499Z" fill="#04245c" stroke="#04245c"></path><path d="M2047.1 819L2270.6 502L1960.1 499Z" fill="#3242a6" stroke="#3242a6"></path><path d="M614.9 817L612.9 1080L829.3 1080Z" fill="#143079" stroke="#143079"></path><path d="M321.4 774L614.9 817L578.9 532Z" fill="#273c97" stroke="#273c97"></path><path d="M611.9 0L320.4 0L527.9 293Z" fill="#1d3688" stroke="#1d3688"></path><path d="M527.9 293L250.4 594L578.9 532Z" fill="#715df2" stroke="#715df2"></path><path d="M1681.7 1080L2048.1 1080L1760.7 773Z" fill="#1d3688" stroke="#1d3688"></path><path d="M2047.1 819L2226.6 869L2270.6 502Z" fill="#0b2a6a" stroke="#0b2a6a"></path><path d="M320.4 0L248.4 283L527.9 293Z" fill="#3d48b5" stroke="#3d48b5"></path><path d="M250.4 594L321.4 774L578.9 532Z" fill="#0b2a6a" stroke="#0b2a6a"></path><path d="M2048.1 1080L2226.6 869L2047.1 819Z" fill="#5653d4" stroke="#5653d4"></path><path d="M248.4 283L250.4 594L527.9 293Z" fill="#04245c" stroke="#04245c"></path><path d="M2560 294L2337.6 0L2254.6 289Z" fill="#143079" stroke="#143079"></path><path d="M2254.6 289L2337.6 0L1935.1 0Z" fill="#494dc4" stroke="#494dc4"></path><path d="M2560 294L2254.6 289L2270.6 502Z" fill="#494dc4" stroke="#494dc4"></path><path d="M2048.1 1080L2214.6 1080L2226.6 869Z" fill="#0b2a6a" stroke="#0b2a6a"></path><path d="M2560 543L2560 294L2270.6 502Z" fill="#5653d4" stroke="#5653d4"></path><path d="M0 833L339.4 1080L321.4 774Z" fill="#04245c" stroke="#04245c"></path><path d="M321.4 774L339.4 1080L614.9 817Z" fill="#143079" stroke="#143079"></path><path d="M2560 543L2270.6 502L2560 791Z" fill="#0b2a6a" stroke="#0b2a6a"></path><path d="M2560 791L2270.6 502L2226.6 869Z" fill="#6358e3" stroke="#6358e3"></path><path d="M0 0L0 227L248.4 283Z" fill="#273c97" stroke="#273c97"></path><path d="M248.4 283L0 600L250.4 594Z" fill="#6358e3" stroke="#6358e3"></path><path d="M250.4 594L0 833L321.4 774Z" fill="#6358e3" stroke="#6358e3"></path><path d="M2560 294L2560 0L2337.6 0Z" fill="#0b2a6a" stroke="#0b2a6a"></path><path d="M0 227L0 600L248.4 283Z" fill="#273c97" stroke="#273c97"></path><path d="M2560 1080L2560 791L2226.6 869Z" fill="#715df2" stroke="#715df2"></path><path d="M320.4 0L0 0L248.4 283Z" fill="#04245c" stroke="#04245c"></path><path d="M0 600L0 833L250.4 594Z" fill="#6358e3" stroke="#6358e3"></path><path d="M2214.6 1080L2560 1080L2226.6 869Z" fill="#715df2" stroke="#715df2"></path><path d="M0 833L0 1080L339.4 1080Z" fill="#1d3688" stroke="#1d3688"></path></g></svg>